<?xml version="1.0" encoding="utf-8"?>
<!-- Generator: Adobe Illustrator 24.1.0, SVG Export Plug-In . SVG Version: 6.00 Build 0)  -->
<svg version="1.1" id="Layer_1" xmlns="http://www.w3.org/2000/svg" xmlns:xlink="http://www.w3.org/1999/xlink" x="0px" y="0px"
	 viewBox="0 0 566.9 187.3" style="enable-background:new 0 0 566.9 187.3;" xml:space="preserve">
<style type="text/css">
	.st0{fill:#231F20;}
	.st1{fill:url(#SVGID_1_);}
	.st2{fill:#FFFFFF;}
	.st3{fill:#A9A8A8;}
</style>
<g>
	<path class="st0" d="M316.9,173.1h-3.7l-0.5,3.2h3.8l-0.5,3.4H312l-0.9,5.5h-3.5l0.9-5.5H305l-0.9,5.5h-3.5l0.9-5.5h-3.8l0.5-3.4
		h3.8l0.5-3.2h-3.8l0.5-3.4h3.8l0.9-5.5h3.5l-0.9,5.5h3.5l0.9-5.5h3.5l-0.9,5.5h3.7L316.9,173.1z M308.9,176.3l0.5-3.2H306l-0.5,3.2
		H308.9z"/>
	<path class="st0" d="M324,180c0.5,2.2,2.2,3.3,4.9,3.3c1.8,0,3.1-0.5,4-1.8l3.6,2.1c-1.8,2.5-4.3,3.7-7.6,3.7
		c-2.9,0-5.2-0.9-6.9-2.6c-1.8-1.8-2.6-4-2.6-6.6c0-2.6,0.9-4.8,2.6-6.6s4-2.6,6.6-2.6c2.5,0,4.7,0.9,6.4,2.6c1.6,1.8,2.5,4,2.5,6.6
		c0,0.5-0.1,1.2-0.2,1.9H324L324,180z M332.9,176.5c-0.5-2.4-2.3-3.5-4.3-3.5c-2.4,0-4.1,1.3-4.6,3.5H332.9z"/>
	<path class="st0" d="M351.4,169.5h4.9l-6.6,17.5h-5.2l-6.6-17.5h4.9l4.2,12.2L351.4,169.5z"/>
	<path class="st0" d="M370.9,162.5h4.5v24.4h-4.5v-2.1c-1.3,1.8-3.2,2.5-5.6,2.5c-2.3,0-4.4-0.9-6-2.6c-1.6-1.8-2.5-4-2.5-6.6
		c0-2.6,0.9-4.7,2.5-6.5c1.6-1.8,3.7-2.6,6-2.6c2.4,0,4.3,0.9,5.6,2.5V162.5z M366.2,183.1c1.4,0,2.5-0.4,3.4-1.3
		c0.9-1,1.3-2.1,1.3-3.5c0-1.4-0.4-2.6-1.3-3.5c-0.9-1-2.1-1.4-3.4-1.4c-1.3,0-2.5,0.4-3.5,1.4c-0.9,0.9-1.3,2.1-1.3,3.5
		c0,1.4,0.4,2.6,1.3,3.5C363.6,182.7,364.8,183.1,366.2,183.1z"/>
	<path class="st0" d="M383.5,180c0.5,2.2,2.2,3.3,4.9,3.3c1.8,0,3.1-0.5,4-1.8l3.6,2.1c-1.8,2.5-4.3,3.7-7.6,3.7
		c-2.9,0-5.2-0.9-6.9-2.6c-1.8-1.8-2.6-4-2.6-6.6c0-2.6,0.9-4.8,2.6-6.6s4-2.6,6.6-2.6c2.5,0,4.7,0.9,6.4,2.6s2.5,4,2.5,6.6
		c0,0.5-0.1,1.2-0.2,1.9H383.5L383.5,180z M392.3,176.5c-0.5-2.4-2.3-3.5-4.3-3.5c-2.4,0-4.1,1.3-4.6,3.5H392.3z"/>
	<path class="st0" d="M416,187h-5.3l-6.4-7.9v7.9h-4.5v-24.4h4.5v14.6l6-7.7h5.4l-7,8.6L416,187z"/>
	<path class="st0" d="M430.3,169.5h4.5V187h-4.5v-2.1c-1.3,1.8-3.3,2.5-5.7,2.5c-2.3,0-4.3-0.9-6-2.6c-1.6-1.8-2.5-4-2.5-6.6
		c0-2.6,0.9-4.7,2.5-6.5c1.6-1.8,3.6-2.6,6-2.6c2.4,0,4.3,0.9,5.7,2.5V169.5z M425.3,183.1c1.4,0,2.5-0.4,3.4-1.3
		c1-1,1.4-2.1,1.4-3.5c0-1.4-0.4-2.6-1.4-3.5c-0.9-1-2.1-1.4-3.4-1.4c-1.3,0-2.5,0.4-3.4,1.4c-0.9,0.9-1.3,2.1-1.3,3.5
		c0,1.4,0.4,2.6,1.3,3.5C422.8,182.7,424,183.1,425.3,183.1z"/>
	<path class="st0" d="M438.9,187v-25.5h4.5V187H438.9z"/>
</g>
<linearGradient id="SVGID_1_" gradientUnits="userSpaceOnUse" x1="310.092" y1="565.577" x2="408.9723" y2="483.4291" gradientTransform="matrix(1 0 0 1 0 -482)">
	<stop  offset="0" style="stop-color:#717070"/>
	<stop  offset="0.3058" style="stop-color:#848282"/>
	<stop  offset="0.945" style="stop-color:#C0BFBE"/>
	<stop  offset="1" style="stop-color:#C7C6C5"/>
</linearGradient>
<path class="st1" d="M325.3,56.2c-0.5,0.1-1.1-0.3-1.2-0.9L321,36.1c-1-6.3,0-11.4,3.3-15.7c3.2-4.2,8-6.7,14.1-7.7L418,0
	c0.5-0.1,1.1,0.3,1.2,0.9l6,38.4c0.1,0.5-0.3,1.1-0.9,1.2L325.3,56.2L325.3,56.2z"/>
<path class="st0" d="M159.1,104.9H109c2.3,9.3,10,16.5,19.9,16.5c5.6,0,11.1-2.4,14.7-6.5l12.1,0.2c-5.4,10.1-15.5,16.6-27.4,16.6
	c-17.3,0-30.8-14.9-30.8-31.9c0-17.5,13.3-31.8,31-31.8c17.1,0,30.9,14.1,30.9,31.1C159.5,101,159.4,103,159.1,104.9L159.1,104.9z
	 M128.6,78.4c-9.8,0-18.9,7.8-19.6,17.7h39.1C147.5,86.2,138.4,78.4,128.6,78.4L128.6,78.4z"/>
<path class="st0" d="M209.4,130.3V97.4c0-10.2-3.1-18.9-15.1-18.9c-11.1,0-15.9,8.7-15.9,18.8v33h-11.3V69.7h10.6v6.5h0.2
	c4.4-5.8,10.8-8.1,17.7-8.1c8.7,0,16.7,3.4,21.4,10.8c3,4.6,3.8,10.1,3.8,15.5v35.8L209.4,130.3L209.4,130.3z"/>
<path class="st0" d="M281.3,130.3v-8.7H281c-5.1,7-13,10.1-21.4,10.1c-18.1,0-31.4-13.5-31.4-31.5c0-18.1,13.1-32.1,31.4-32.1
	c7.7,0,15.7,3,20.6,9h0.2V49.3h11.4v80.9L281.3,130.3L281.3,130.3z M260.3,78.4c-12,0-20.8,9.9-20.8,21.7c0,11.3,9.1,21.3,20.7,21.3
	c11.8,0,21.1-9.7,21.1-21.3C281.3,87.9,272.6,78.4,260.3,78.4L260.3,78.4z"/>
<polygon class="st0" points="324.6,150.5 312.8,150.5 321.6,129 297.5,69.7 309.7,69.7 327.5,116.6 345.8,69.7 358.1,69.7 "/>
<path class="st0" d="M390.4,131.8c-17.8,0-32.6-14.3-32.6-32.2c0-17.8,15.2-31.4,32.6-31.4c17.7,0,32.6,13.7,32.6,31.7
	C423,117,408.7,131.8,390.4,131.8L390.4,131.8z M390.4,78.4c-11.8,0-21.3,9.7-21.3,21.4s9.5,21.5,21.3,21.5s21.3-9.9,21.3-21.7
	S402.1,78.4,390.4,78.4L390.4,78.4z"/>
<polygon class="st0" points="432.4,130.3 432.4,49.4 443.7,49.4 443.7,130.3 "/>
<path class="st0" d="M11.5,118.8c0.6,2,1.1,3.6,1.9,4.8c0.8,1.2,1.7,2.3,2.8,3.2c3.7,3.2,8.3,4.8,13.8,4.8c5.5,0,10.5-1.3,15.1-3.9
	v-11.1c-4.8,2.8-9.4,4.2-13.6,4.2c-5.8,0-8.8-3.6-8.8-10.6V80.1h19.3V69.3H22.6V49.5H11.2v19.8H0v10.7h10.6v27.3
	C10.7,113.1,11,116.7,11.5,118.8L11.5,118.8z"/>
<path class="st0" d="M80.8,79.8c3.5,0,7.4,2,11.5,5.8l6.2-10.2c-5.1-4.6-11.1-6.7-14.6-6.7h-0.8c-4.1,0-10.9,0-16.4,9l-0.2,0.3
	l0.1-8.1H54.7v60h11.8V98.5c0-5.1,1.4-9.5,4.3-13.1C73.5,81.7,76.9,79.8,80.8,79.8L80.8,79.8z"/>
<path class="st2" d="M352.6,35.8c-0.7,2.4-2.5,4.1-4.9,4.5c-3.2,0.5-6.8-1.3-7.6-5.9c-0.7-4.2,1.5-7.5,5.4-8
	c2.5-0.4,4.6,0.5,6.2,2.7l3.8-0.7c-1.8-3.7-6.2-5.9-10.6-5.3c-5.6,0.9-9.2,5.9-8.2,11.8c1,5.8,5.9,9.5,11.5,8.6
	c4.3-0.7,7.6-4,8.4-8.2L352.6,35.8L352.6,35.8z"/>
<path class="st2" d="M367.3,19.5c-5.7,1-9.7,6.2-8.8,11.7c0.9,5.6,6.4,9.5,12.1,8.6c5.7-1,9.7-6.3,8.7-11.9
	C378.4,22.3,373,18.5,367.3,19.5L367.3,19.5z M370.2,36.6c-3.8,0.7-7.5-2-8.1-5.9c-0.7-3.8,2-7.5,5.8-8.1c3.8-0.7,7.5,2,8.1,5.8
	C376.5,32.3,373.9,36,370.2,36.6L370.2,36.6z"/>
<path class="st2" d="M413.1,32.2l-1.9-11.7c-0.9-5.1-4.3-7.7-9.1-6.8c-3,0.4-4.7,1.8-5.8,4.3l-0.1,0.2l-0.1-0.1
	c-1.4-2.1-4.3-2.6-6.5-2.2c-2.4,0.4-3.7,1.3-5.1,3.5l0,0h-0.2l-0.3-2.1l-3.2,0.5l3.2,19.2l3.4-0.5l-1.8-10.8c-0.7-4,0.7-6.2,4-6.7
	c1.6-0.2,3,0.1,4.1,1.2c1,1.2,1.2,2.4,1.5,4L397,35l3.4-0.5l-1.8-10.8c-0.4-2.7-0.4-6,3.7-6.7c3.1-0.5,5.1,1.3,5.7,5.2l1.8,10.7
	L413.1,32.2L413.1,32.2z"/>
<path class="st2" d="M336,43.5c0,1.5-1.2,2.7-2.7,2.7c-1.5,0-2.7-1.2-2.7-2.7c0-1.5,1.2-2.7,2.7-2.7C334.8,40.8,336,42,336,43.5
	L336,43.5z"/>
<g>
	<path class="st3" d="M464.7,93h21.2v4h-16.6v11.5h14v4h-14v13.3h17.1v4h-21.8V93L464.7,93z"/>
	<path class="st3" d="M495.2,89.8h4.6v34.7c0,0.8,0.1,1.3,0.4,1.5c0.3,0.2,0.5,0.4,0.9,0.4c0.1,0,0.3,0,0.4,0s0.3,0,0.5-0.1l0.7,3.5
		c-0.3,0.1-0.7,0.2-1.1,0.3c-0.4,0.1-1,0.1-1.5,0.1c-1.8,0-3-0.5-3.7-1.5c-0.8-1.1-1.1-2.6-1.1-4.6V89.8H495.2z"/>
	<path class="st3" d="M513.3,97c-0.9,0-1.6-0.2-2.3-0.9c-0.7-0.5-0.9-1.3-0.9-2.1c0-0.9,0.3-1.6,0.9-2.2c0.7-0.5,1.3-0.8,2.3-0.8
		s1.6,0.2,2.3,0.8c0.7,0.5,0.9,1.2,0.9,2.2c0,0.9-0.3,1.5-0.9,2.1C515,96.6,514.1,97,513.3,97z M511,102.6h4.6v27.3H511V102.6z"/>
	<path class="st3" d="M526.9,106.3h-4.1v-3.5l4.3-0.3l0.5-7.6h3.8v7.6h7.4v3.7h-7.4v15.2c0,1.6,0.3,3,0.9,3.8
		c0.7,0.9,1.8,1.3,3.3,1.3c0.4,0,1-0.1,1.5-0.2c0.5-0.1,1.1-0.3,1.5-0.5l0.9,3.5c-0.8,0.2-1.5,0.5-2.4,0.7c-0.9,0.1-1.8,0.3-2.6,0.3
		c-1.4,0-2.6-0.2-3.6-0.7c-1-0.4-1.8-1.1-2.4-1.9c-0.7-0.8-1.1-1.8-1.3-2.9s-0.4-2.3-0.4-3.7L526.9,106.3L526.9,106.3z"/>
	<path class="st3" d="M543.9,116.2c0-2.2,0.3-4.3,1-6c0.7-1.8,1.6-3.3,2.7-4.5c1.1-1.2,2.4-2.2,3.8-2.9c1.4-0.7,3-1,4.5-1
		c1.8,0,3.3,0.3,4.6,0.9c1.3,0.5,2.5,1.4,3.4,2.6c0.9,1.1,1.6,2.4,2.1,4.1c0.4,1.5,0.8,3.3,0.8,5.3c0,1,0,1.9-0.2,2.5h-18.2
		c0.2,3,1.1,5.3,2.7,7c1.6,1.8,3.7,2.6,6.4,2.6c1.3,0,2.5-0.2,3.6-0.5c1.1-0.4,2.2-0.9,3.2-1.5l1.6,3.1c-1.2,0.8-2.5,1.4-4,2
		s-3.1,0.9-4.9,0.9c-1.9,0-3.5-0.3-5.2-1c-1.6-0.7-3-1.6-4.2-2.7c-1.2-1.2-2.1-2.7-2.7-4.5S543.9,118.5,543.9,116.2z M562.9,114.1
		c0-2.7-0.5-4.9-1.8-6.4c-1.2-1.4-2.9-2.2-4.9-2.2c-1,0-1.9,0.2-2.7,0.5c-0.9,0.4-1.6,1-2.4,1.6c-0.8,0.8-1.3,1.6-1.8,2.7
		s-0.8,2.3-0.9,3.6H562.9L562.9,114.1z"/>
</g>
</svg>
